
<svg xmlns="http://www.w3.org/2000/svg" version="1.1" xmlns:xlink="http://www.w3.org/1999/xlink" preserveAspectRatio="none" x="0px" y="0px" width="21px" height="21px" viewBox="0 0 21 21">
<defs>
<g id="Layer0_0_FILL">
<path fill="#FFFFFF" stroke="none" d="
M 21 19.6
L 21 13.05
Q 21 12.5 20.6 12.1 20.2 11.65 19.6 11.65
L 13.05 11.65
Q 12.5 11.65 12.1 12.1 11.65 12.5 11.65 13.05
L 11.65 19.6
Q 11.65 20.2 12.1 20.6 12.5 21 13.05 21
L 19.6 21
Q 20.2 21 20.6 20.6 21 20.2 21 19.6
M 19.6 19.6
L 13.05 19.6 13.05 13.05 19.6 13.05 19.6 19.6
M 1.4 11.65
Q 0.8 11.65 0.4 12.1 0 12.5 0 13.05
L 0 19.6
Q 0 20.2 0.4 20.6 0.8 21 1.4 21
L 7.95 21
Q 8.5 21 8.95 20.6 9.35 20.2 9.35 19.6
L 9.35 13.05
Q 9.35 12.5 8.95 12.1 8.5 11.65 7.95 11.65
L 1.4 11.65
M 1.4 19.6
L 1.4 13.05 7.95 13.05 7.95 19.6 1.4 19.6
M 21 7.95
L 21 1.4
Q 21 0.8 20.6 0.4 20.2 0 19.6 0
L 13.05 0
Q 12.5 0 12.1 0.4 11.65 0.8 11.65 1.4
L 11.65 7.95
Q 11.65 8.5 12.1 8.95 12.5 9.35 13.05 9.35
L 19.6 9.35
Q 20.2 9.35 20.6 8.95 21 8.5 21 7.95
M 13.05 7.95
L 13.05 1.4 19.6 1.4 19.6 7.95 13.05 7.95
M 9.35 1.4
Q 9.35 0.8 8.95 0.4 8.5 0 7.95 0
L 1.4 0
Q 0.8 0 0.4 0.4 0 0.8 0 1.4
L 0 7.95
Q 0 8.5 0.4 8.95 0.8 9.35 1.4 9.35
L 7.95 9.35
Q 8.5 9.35 8.95 8.95 9.35 8.5 9.35 7.95
L 9.35 1.4
M 1.4 1.4
L 7.95 1.4 7.95 7.95 1.4 7.95 1.4 1.4 Z"/>
</g>
</defs>

<g transform="matrix( 1, 0, 0, 1, 0,0) ">
<use xlink:href="#Layer0_0_FILL"/>
</g>
</svg>
