<svg xmlns="http://www.w3.org/2000/svg" xmlns:xlink="http://www.w3.org/1999/xlink" viewBox="0 0 278 53">
    <defs>
        <linearGradient id="a" gradientUnits="userSpaceOnUse" x1="57.3" y1="5.7" x2="10.3" y2="45.6">
            <stop offset="1.176%" stop-color="#4CFD8B"/>
            <stop offset="100%" stop-color="#1B9EFC"/>
        </linearGradient>
        <linearGradient id="b" gradientUnits="userSpaceOnUse" x1="17.363" y1="12.925" x2="2.438" y2="38.775">
            <stop offset="0%" stop-color="#5EFEC4"/>
            <stop offset="100%" stop-color="#2BCFFD"/>
        </linearGradient>
        <linearGradient id="c" gradientUnits="userSpaceOnUse" x1="34.638" y1="9.287" x2="24.962" y2="21.513">
            <stop offset="0%" stop-color="#E6FFFF" stop-opacity=".298"/>
            <stop offset="97.647%" stop-color="#FEFFFF" stop-opacity=".784"/>
            <stop offset="100%" stop-color="#FFF" stop-opacity=".8"/>
        </linearGradient>
        <linearGradient id="d" gradientUnits="userSpaceOnUse" x1="13.813" y1="11.087" x2="5.188" y2="30.813">
            <stop offset="0%" stop-color="#FFFE94" stop-opacity=".098"/>
            <stop offset="18.431%" stop-color="#FFFEA1" stop-opacity=".192"/>
            <stop offset="54.118%" stop-color="#FFFEC6" stop-opacity=".431"/>
            <stop offset="100%" stop-color="#FFF" stop-opacity=".8"/>
        </linearGradient>
        <linearGradient id="e" gradientUnits="userSpaceOnUse" x1="273.113" y1="26.55" x2="178.188" y2="26.55">
            <stop offset="1.176%" stop-color="#4CFD8B"/>
            <stop offset="100%" stop-color="#1B9EFC"/>
        </linearGradient>
        <path fill="url(#a)" d="M15.75 42.25q1.05-3.55 3.6-7.75 1.45-2.3-1.15-5-2.55-2.7-4.9-1.2-1.3.8-2.75 3.9Q9 35.6 8.7 39.15q-.75 9.9 8.75 12.8-3.6-3.1-1.7-9.7m16.35-22.7q4.5-4 4.95-4.6 1.45-1.95-1.2-4.8-2.65-2.9-5.45-1.2-2.85 1.8-7.35 6.6-4.3 4.65-5.25 6.8-.85 2 2.25 4.6 3.1 2.55 4.2 1.05 3.25-4.4 7.85-8.45m18.3 1q-.4.25-2.65 3.1-2.75 3.45-4.7 5.4-2.1 2.1-5.5 4.75-2.95 2.35-3.1 2.55-.8 1.2.45 2.9 1.3 1.8 3.25 1.2 1.15-.35 3.9-2.25 3.05-2.2 5.55-4.65 3.05-3 5.15-6.05 1.5-2.15 2-3.4.6-1.5-1.2-2.95-1.8-1.5-3.15-.6m8.55-9.25q-.7-2.3-2.85-2.9.05 1.6-.75 4.25-.7 2.4-1.5 3.6-.7 1.1.3 2.6 1 1.55 2.35.8.6-.35 1.35-1.4.8-1.2 1.15-2.55.6-2.45-.05-4.4m-4.6-4.45q3.85-.4 5.7 2.15Q57.85.8 49.6.1q-6.9-.65-10.85 2.8-2.95 2.6.05 5.4 3 2.75 7.4 1 5.55-2.15 8.15-2.45z" id="f"/>
        <path fill="url(#b)" d="M10.6 27.6q2.8-5.1 7.3-9.9 1.9-2.6-1.2-5.65-3.1-3.1-5.85-1.25-2 1.3-4.55 4.45-3.35 4.1-5 8.5-4.7 12.8 7.05 22.6-3.1-8.95 2.25-18.75z" id="g"/>
        <path fill="url(#c)" d="M20.2 18.85q4.35-.85 8.75-.85 2.1 0 4.6.25 2.95-2.5 3.5-3.3 1.45-1.95-1.2-4.8-2.65-2.9-5.45-1.2-2 1.25-5.1 4.3-2.9 2.85-5.1 5.6z" id="h"/>
        <path fill="url(#d)" d="M0 29.95q5.85-6.9 16.05-10.05l1.85-2.2q1.9-2.6-1.2-5.65-3.1-3.1-5.85-1.25-2.95 1.85-6.2 6.55Q.25 23.7 0 29.95z" id="i"/>
        <path fill="#1A3046" d="M67.1 39.15h1.75V14H67.1v25.15z" id="j"/>
        <path fill="#1A3046" d="M88.45 15.25q3.05 0 5.8 1.35l.7-1.55q-2.85-1.4-6.6-1.4-3.55 0-6.35 1.6-2.75 1.6-4.15 4.5-1.45 2.85-1.45 6.8 0 6.15 3.05 9.55 3 3.4 8.35 3.4 3.65 0 6.2-.85V37.1q-2.55.8-5.8.8-4.8 0-7.35-3-2.55-2.9-2.55-8.35 0-5.2 2.7-8.3 2.8-3 7.45-3z" id="k"/>
        <path fill="#1A3046" d="M119.55 17.1q-3-3.45-8.25-3.45t-8.25 3.45q-3 3.45-3 9.45 0 5.95 2.95 9.5 3 3.45 8.25 3.45t8.25-3.45q3-3.5 3-9.5 0-5.95-2.95-9.45m-8.25-1.75q4.5 0 6.9 2.9 2.4 2.85 2.4 8.3 0 5.5-2.4 8.4-2.4 2.9-6.95 2.9-4.55 0-6.9-2.95-2.4-2.9-2.4-8.35 0-5.35 2.4-8.3 2.45-2.9 6.95-2.9z" id="l"/>
        <path fill="#1A3046" d="M148.35 14h-1.7l.15 22.3h-.1L131.8 14h-1.75v25.15h1.7l-.2-22.3h.1l14.9 22.3h1.8V14z" id="m"/>
        <path fill="#1A3046" d="M163.8 15.2q2.8 0 6 1.3l.65-1.5q-3.15-1.35-6.7-1.35-3.45 0-5.65 1.8-2.2 1.75-2.2 4.6 0 2.6 1.45 4.1 1.65 1.65 5.3 2.85 2.7.9 4 1.7 1.35.75 1.95 1.7.6.9.6 2.35 0 2.35-1.8 3.75-1.85 1.4-4.9 1.4-4.1 0-6.95-1.15v1.75q2.35 1 7.1 1 3.85 0 6.15-1.85 2.3-1.8 2.3-4.95 0-1.7-.7-2.95-.75-1.3-2.15-2.15-1.45-.95-4.4-2-2.85-1-3.95-1.7-1.15-.65-1.7-1.6-.5-1-.5-2.3 0-2.2 1.65-3.5 1.7-1.3 4.45-1.3z" id="n"/>
        <path fill="url(#e)" d="M273.15 14h-1.8l-5.9 22.4q-.45-2.25-1.25-4.85l-5-17.55h-1.95l-4.3 15.3q-1.4 4.85-1.75 7.1L245.3 14h-1.85l6.9 25.15h1.5l6.35-23.3q.3 1.45 1 3.9l5.55 19.4h1.45L273.15 14m-81.2 1.65V14H178.2v25.15h1.75v-11.2h11.35V26.3h-11.35V15.65h12m19.4 23.5V37.5h-12V14h-1.75v25.15h13.75M235.6 17.1q-2.9-3.45-8.2-3.45-5.25 0-8.25 3.45-3.05 3.4-3.05 9.45 0 6 3 9.5 3 3.45 8.25 3.45t8.25-3.45q3-3.5 3-9.5t-3-9.45m-8.2-1.75q4.5 0 6.9 2.9 2.4 2.85 2.4 8.3 0 5.5-2.4 8.4-2.4 2.9-6.95 2.9-4.55 0-6.9-2.95-2.4-2.9-2.4-8.35 0-5.35 2.4-8.3 2.45-2.9 6.95-2.9z" id="o"/>
    </defs>
    <use xlink:href="#f" transform="matrix(1.01756 0 0 1.01924 .05 0)"/>
    <use xlink:href="#g" transform="matrix(1.01756 0 0 1.01924 .05 0)"/>
    <use xlink:href="#h" transform="matrix(1.01756 0 0 1.01924 .05 0)"/>
    <use xlink:href="#i" transform="matrix(1.01756 0 0 1.01924 .05 0)"/>
    <use xlink:href="#j" transform="matrix(1.01756 0 0 1.01924 .05 0)"/>
    <use xlink:href="#k" transform="matrix(1.01756 0 0 1.01924 .05 0)"/>
    <use xlink:href="#l" transform="matrix(1.01756 0 0 1.01924 .05 0)"/>
    <use xlink:href="#m" transform="matrix(1.01756 0 0 1.01924 .05 0)"/>
    <use xlink:href="#n" transform="matrix(1.01756 0 0 1.01924 .05 0)"/>
    <use xlink:href="#o" transform="matrix(1.01756 0 0 1.01924 .05 0)"/>
</svg>
