
<svg xmlns="http://www.w3.org/2000/svg" version="1.1" xmlns:xlink="http://www.w3.org/1999/xlink" preserveAspectRatio="none" x="0px" y="0px" width="33px" height="21px" viewBox="0 0 33 21">
<defs>
<g id="Layer0_0_FILL">
<path fill="#FFFFFF" stroke="none" d="
M 15.75 20.85
L 17.25 20.85 17.25 12.15 19.7 14.55 20.75 13.5 16.5 9.25 12.25 13.5 13.3 14.55 15.75 12.1 15.75 20.85
M 22.1 2.2
Q 23.55 2.85 24.75 4 25.95 5.1 26.65 6.5 27.4 8 27.4 9.45
L 27.4 10.85 28.85 11.2
Q 30.1 11.65 30.85 12.65 31.6 13.65 31.6 14.9 31.6 16.35 30.35 17.8 29.1 19.3 27.65 19.55
L 21.1 19.55 21.1 21 27.85 20.95
Q 30.05 20.55 31.5 18.9 33 17.25 33 15 33 13.1 31.85 11.5 30.7 10 28.85 9.35 28.85 7.45 28.05 5.7 27.3 4.05 25.95 2.75 24.6 1.45 22.85 0.75 21.05 0 19.05 0 16.2 0 13.85 1.5 11.5 2.95 10.3 5.35 9.7 4.7 8.9 4.35 8.1 4 7.2 4 5.5 4 4.3 5.2 3.1 6.35 3.1 8 3.1 8.85 3.45 9.65 1.9 10.4 0.95 11.8 0 13.25 0 15 0 17.25 1.5 18.9 2.95 20.55 5.15 20.95
L 11.95 21 11.95 19.55 6.25 19.55 5.55 19.45
Q 4.1 19.25 2.75 17.8 1.4 16.35 1.4 14.9 1.4 13.65 2.35 12.3 3.45 10.75 5.15 10.15
L 4.65 8.85
Q 4.5 8.5 4.5 8.1 4.5 7.15 5.25 6.35 6.1 5.4 7.3 5.4 7.7 5.4 8.2 5.6 8.65 5.8 8.95 6.1
L 10.55 7.25 11.95 5.4
Q 13.15 3.65 14.95 2.6 16.9 1.5 19.05 1.5 20.6 1.5 22.1 2.2 Z"/>
</g>
</defs>

<g transform="matrix( 1, 0, 0, 1, 0,0) ">
<use xlink:href="#Layer0_0_FILL"/>
</g>
</svg>
