<svg xmlns="http://www.w3.org/2000/svg" width="27.5" height="26.465" viewBox="0 -0.00028586952248588204 27.5 26.465286254882813">
    <path d="M13.914 2.488c-.35 0-.693.1-.986.29l-9.59 6.156c-.524.338-.838.913-.838 1.538v5.942c0 .64.344 1.243.895 1.57l9.658 5.725c.537.32 1.236.332 1.786.04l9.19-4.885c.597-.317.97-.935.97-1.613V10.17c0-.63-.32-1.204-.85-1.542l-9.26-5.86c-.294-.185-.63-.282-.978-.282m.07 23.977c-.776 0-1.54-.21-2.206-.606L2.12 20.135C.814 19.36 0 17.935 0 16.413V10.47c0-1.48.744-2.84 1.988-3.64l9.59-6.157c1.384-.89 3.254-.9 4.65-.016l9.258 5.86c1.262.796 2.014 2.164 2.014 3.654v7.084c0 1.605-.88 3.07-2.296 3.82l-9.19 4.885c-.623.33-1.325.505-2.03.505" fill="#fff"/>
</svg>