
<svg xmlns="http://www.w3.org/2000/svg" version="1.1" xmlns:xlink="http://www.w3.org/1999/xlink" preserveAspectRatio="none" x="0px" y="0px" width="27px" height="20px" viewBox="0 0 27 20">
<defs>
<g id="Layer0_0_FILL">
<path fill="#FFFFFF" stroke="none" d="
M 27 9.85
Q 27 5.75 24.1 2.9 21.15 0 17.05 0 12.95 0 10.05 2.9 7.1 5.75 7.1 9.85 7.1 12 8.15 14.15
L 0.4 18.55 0.1 18.85
Q -0.1 19.2 0.1 19.6 0.45 20.25 1.15 19.85
L 8.85 15.45
Q 10.3 17.4 12.35 18.55 14.55 19.7 17.05 19.7 21.15 19.7 24.1 16.8 27 13.9 27 9.85
M 26 9.85
Q 26 13.5 23.4 16.1 20.75 18.7 17.05 18.7 13.35 18.7 10.75 16.1 8.1 13.5 8.1 9.85 8.1 6.2 10.75 3.6 13.35 1 17.05 1 20.75 1 23.4 3.6 26 6.2 26 9.85 Z"/>
</g>
</defs>

<g transform="matrix( 1, 0, 0, 1, 0,0) ">
<use xlink:href="#Layer0_0_FILL"/>
</g>
</svg>
