<svg xmlns="http://www.w3.org/2000/svg" xmlns:xlink="http://www.w3.org/1999/xlink" viewBox="0 0 14 12">
    <path fill="#FFF" d="M11.5 7.8q-.6-.45-1.35-.45-.7 0-1.3.45-.6.45-.85 1.1H0v1.6h8q.25.65.85 1.1.6.4 1.3.4.75 0 1.3-.4.6-.4.85-1.1H14V8.9h-1.7q-.25-.65-.8-1.1m-1.35 1.15q.3 0 .5.2.25.25.25.55 0 .3-.25.5-.2.25-.5.25t-.5-.25q-.25-.2-.25-.5t.25-.55q.2-.2.5-.2M14 3.15V1.6H6Q5.75.85 5.2.45 4.6 0 3.85 0 3.1 0 2.5.45q-.6.4-.8 1.15H0v1.55h1.7q.25.65.85 1.05.6.45 1.3.45.7 0 1.3-.45.55-.4.8-1.05H14m-10.9-.8q0-.3.2-.55.25-.2.55-.2.3 0 .5.2.2.25.2.55 0 .3-.2.5t-.5.2q-.3 0-.55-.2-.2-.2-.2-.5z" id="a"/>
</svg>
